<?xml version="1.0" encoding="utf-8"?>
<svg width="24px" height="24px" viewBox="0 0 24 24" xmlns:xlink="http://www.w3.org/1999/xlink" xmlns="http://www.w3.org/2000/svg">
  <desc>Created with Lunacy</desc>
  <defs>
    <rect width="24" height="24" id="artboard_1" />
    <clipPath id="clip_1">
      <use xlink:href="#artboard_1" clip-rule="evenodd" />
    </clipPath>
  </defs>
  <g id="Artboard" clip-path="url(#clip_1)">
    <path d="M12.9047 0L10.6599 0L6.43149 10.5533L2.20305 0L0 0L0 11.9428L1.70559 12.9275L1.70559 7.89723L1.53681 2.48732L5.77413 12.9341L7.07997 12.9341L11.1967 2.78009L11.1967 6.86381L11.1663 7.89723L11.1663 12.9341L15.6827 12.9341Q17.7436 12.9341 18.8718 11.9391C19.6239 11.2758 20 10.3638 20 9.20308Q20 8.06602 19.3915 7.24431Q18.783 6.42261 17.7348 6.12946C18.327 5.87481 18.7948 5.51503 19.1383 5.05014Q19.6536 4.35281 19.6536 3.44671Q19.6536 1.74112 18.592 0.870561Q17.5304 0 15.4251 0L13.7047 0L13.7047 1.39467L15.4251 1.39467Q16.6954 1.39468 17.3173 1.87985Q17.9391 2.36504 17.9391 3.43339Q17.9391 4.39486 17.2684 4.95569Q16.5977 5.51651 15.4784 5.51651L14.2047 5.51651L14.2047 6.88454L15.7449 6.88454Q18.2855 6.88454 18.2855 9.22084Q18.2855 10.3046 17.5971 10.922Q16.9086 11.5394 15.7183 11.5394L12.9023 11.5394L12.9023 6.88454L12.9047 6.88454L12.9047 5.51651L12.9023 5.51651L12.9023 1.39467L12.9047 1.39467L12.9047 0Z" transform="translate(2.0393677 5.8289948)" id="Mask-Difference" fill="#ffffff" fill-rule="evenodd" stroke="none" />
  </g>
</svg>
